<?xml version="1.0" encoding="UTF-8" standalone="no"?> <!-- Created with Vectornator for iOS (http://vectornator.io/) --><!DOCTYPE svg PUBLIC "-//W3C//DTD SVG 1.1//EN" "http://www.w3.org/Graphics/SVG/1.1/DTD/svg11.dtd">
<svg height="100%" style="fill-rule:evenodd;clip-rule:evenodd;stroke-linecap:round;stroke-linejoin:round;" xmlns:xlink="http://www.w3.org/1999/xlink" xmlns="http://www.w3.org/2000/svg" xml:space="preserve" width="100%" xmlns:vectornator="http://vectornator.io" version="1.1" viewBox="0 0 1024 1024">
<metadata>
<vectornator:setting key="DisplayWhiteBackground" value="0"/>
<vectornator:setting key="RulersVisible" value="1"/>
<vectornator:setting key="GridSpacing" value="36"/>
<vectornator:setting key="Units" value="Pixels"/>
<vectornator:setting key="DynamicGuides" value="1"/>
<vectornator:setting key="SnapToPoints" value="0"/>
<vectornator:setting key="CMYKEnabledKey" value="0"/>
<vectornator:setting key="SnapToGrid" value="0"/>
<vectornator:setting key="SnapToGuides" value="1"/>
<vectornator:setting key="ShowGrid" value="0"/>
<vectornator:setting key="SnapToEdges" value="1"/>
</metadata>
<defs>
<path d="M125.452+1.13755e-05L898.548+1.13755e-05C967.833+1.13755e-05+1024+56.1669+1024+125.452L1024+898.548C1024+967.833+967.833+1024+898.548+1024L125.452+1024C56.1669+1024-1.21449e-06+967.833-1.21449e-06+898.548L-1.21449e-06+125.452C-1.21449e-06+56.1669+56.1669+1.13755e-05+125.452+1.13755e-05Z" id="Mask"/>
<path d="M105.909+512C105.909+287.722+287.722+105.909+512+105.909C736.278+105.909+918.091+287.722+918.091+512C918.091+736.278+736.278+918.091+512+918.091C287.722+918.091+105.909+736.278+105.909+512Z" id="Mask_2"/>
</defs>
<g id="Outer Color" vectornator:layerName="Outer Color">
<g opacity="1" vectornator:mask="#Mask">
<use xlink:href="#Mask" fill="#00e2ac" stroke="none"/>
<clipPath id="ClipPath">
<use xlink:href="#Mask" fill="none" overflow="visible"/>
</clipPath>
<g clip-path="url(#ClipPath)">
<path d="M0+0L1024+1024L0+1024L0+0Z" opacity="1" fill="#79d08f"/>
<path d="M1024+1024L0+0L1024+0L1024+1024Z" opacity="1" fill="#f68d5e"/>
</g>
</g>
</g>
<g id="Inner color" vectornator:layerName="Inner color">
<g opacity="1" vectornator:mask="#Mask_2">
<use stroke="none" xlink:href="#Mask_2" fill-opacity="0.466518" fill="#767676"/>
<clipPath id="ClipPath_2">
<use xlink:href="#Mask_2" fill="none" overflow="visible"/>
</clipPath>
<g clip-path="url(#ClipPath_2)">
<path d="M105.909+105.909L918.091+918.091L105.909+918.091L105.909+105.909Z" opacity="1" fill="#ff6f6f"/>
<path d="M918.091+918.091L105.909+105.909L918.091+105.909L918.091+918.091Z" opacity="1" fill="#ffac6f"/>
</g>
</g>
<path d="M-31.1291+181.04C-31.1291+180.826-28.6962+180.652-25.695+180.652C-22.6939+180.652-20.261+180.826-20.261+181.04C-20.261+181.254-22.6939+181.428-25.695+181.428C-28.6962+181.428-31.1291+181.254-31.1291+181.04Z" opacity="1" fill="#ff6f6f"/>
</g>
<g id="Patterns" vectornator:layerName="Patterns">
<g opacity="1">
<path d="M522.928+733.347C522.666+733.362+522.428+733.501+522.285+733.72C522.277+733.731+522.27+733.742+522.263+733.754C520.464+736.362+516.137+744.476+516.37+748.568C516.603+752.656+520.104+755.78+524.192+755.547C528.279+755.314+531.403+751.813+531.17+747.726C530.938+743.638+525.73+736.083+523.641+733.687C523.641+733.686+523.641+733.685+523.641+733.685C523.631+733.671+523.62+733.658+523.608+733.645C523.442+733.443+523.189+733.332+522.928+733.347Z" opacity="1" fill="#3b3b3b"/>
<path d="M620.943+694.475C620.682+694.49+620.443+694.629+620.3+694.849C620.293+694.859+620.285+694.871+620.278+694.882C618.479+697.491+614.153+705.605+614.386+709.697C614.618+713.784+618.12+716.908+622.207+716.675C626.294+716.442+629.418+712.941+629.186+708.854C628.953+704.767+623.745+697.211+621.657+694.815C621.656+694.814+621.657+694.813+621.656+694.813C621.646+694.799+621.635+694.786+621.624+694.773C621.457+694.571+621.204+694.461+620.943+694.475Z" opacity="1" fill="#3b3b3b"/>
<path d="M550.585+573.111C550.324+573.126+550.085+573.265+549.943+573.484C549.935+573.495+549.928+573.506+549.92+573.518C548.121+576.126+543.795+584.24+544.028+588.332C544.261+592.419+547.762+595.544+551.849+595.311C555.937+595.078+559.061+591.577+558.828+587.489C558.595+583.402+553.387+575.847+551.299+573.45C551.299+573.45+551.299+573.449+551.299+573.449C551.288+573.435+551.277+573.422+551.266+573.409C551.099+573.207+550.847+573.096+550.585+573.111Z" opacity="1" fill="#3b3b3b"/>
<path d="M449.802+683.623C449.541+683.638+449.302+683.776+449.16+683.996C449.152+684.007+449.144+684.018+449.137+684.029C447.338+686.638+443.012+694.752+443.245+698.844C443.478+702.931+446.979+706.055+451.066+705.823C455.153+705.59+458.278+702.089+458.045+698.001C457.812+693.914+452.604+686.359+450.516+683.962C450.516+683.962+450.516+683.961+450.516+683.961C450.505+683.947+450.494+683.934+450.483+683.921C450.316+683.719+450.063+683.608+449.802+683.623Z" opacity="1" fill="#3b3b3b"/>
<path d="M368.155+778.597C367.894+778.612+367.655+778.751+367.513+778.97C367.505+778.981+367.498+778.992+367.49+779.004C365.691+781.612+361.365+789.726+361.598+793.818C361.831+797.905+365.332+801.029+369.419+800.797C373.507+800.564+376.631+797.063+376.398+792.975C376.165+788.888+370.957+781.333+368.869+778.936C368.869+778.936+368.869+778.935+368.869+778.935C368.858+778.921+368.847+778.908+368.836+778.895C368.669+778.693+368.417+778.582+368.155+778.597Z" opacity="1" fill="#3b3b3b"/>
<path d="M562.138+855.819C561.877+855.834+561.638+855.972+561.495+856.192C561.488+856.203+561.48+856.214+561.473+856.225C559.674+858.834+555.348+866.948+555.581+871.04C555.813+875.127+559.315+878.251+563.402+878.019C567.489+877.786+570.613+874.284+570.381+870.197C570.148+866.11+564.94+858.555+562.852+856.158C562.851+856.158+562.852+856.157+562.852+856.157C562.841+856.143+562.83+856.13+562.819+856.116C562.652+855.915+562.399+855.804+562.138+855.819Z" opacity="1" fill="#3b3b3b"/>
<path d="M230.657+356.464C230.919+356.472+231.168+356.355+231.33+356.149C231.339+356.139+231.347+356.129+231.355+356.118C233.378+353.679+238.407+345.981+238.538+341.884C238.668+337.792+235.457+334.37+231.366+334.24C227.274+334.109+223.852+337.32+223.721+341.412C223.591+345.503+228.108+353.491+229.976+356.063C229.976+356.063+229.976+356.064+229.976+356.064C229.985+356.079+229.995+356.093+230.005+356.107C230.153+356.323+230.395+356.456+230.657+356.464Z" opacity="1" fill="#3b3b3b"/>
<path d="M365.175+478.535C365.002+478.339+364.745+478.237+364.485+478.261C364.471+478.262+364.458+478.263+364.444+478.264C361.282+478.466+352.231+480.088+349.161+482.804C346.094+485.516+345.807+490.199+348.519+493.266C351.231+496.333+355.915+496.62+358.982+493.908C362.048+491.196+364.76+482.429+365.35+479.306C365.35+479.305+365.351+479.305+365.352+479.305C365.356+479.288+365.359+479.271+365.363+479.254C365.418+478.998+365.349+478.731+365.175+478.535Z" opacity="1" fill="#3b3b3b"/>
<path d="M289.393+584.592C289.619+584.724+289.895+584.74+290.135+584.637C290.147+584.632+290.16+584.626+290.172+584.621C293.114+583.444+301.208+579.08+303.278+575.543C305.346+572.009+304.159+567.47+300.626+565.402C297.092+563.334+292.553+564.521+290.485+568.054C288.417+571.587+288.573+580.762+288.987+583.914C288.987+583.915+288.986+583.915+288.986+583.915C288.987+583.933+288.989+583.95+288.991+583.967C289.018+584.227+289.167+584.459+289.393+584.592Z" opacity="1" fill="#3b3b3b"/>
<path d="M211.931+448.409C211.694+448.298+211.418+448.306+211.188+448.431C211.176+448.437+211.164+448.443+211.152+448.449C208.326+449.883+200.651+454.947+198.902+458.654C197.156+462.356+198.741+466.773+202.443+468.52C206.146+470.266+210.563+468.681+212.309+464.979C214.056+461.276+213.087+452.151+212.396+449.048C212.396+449.048+212.396+449.047+212.396+449.047C212.394+449.03+212.39+449.013+212.386+448.996C212.336+448.739+212.167+448.521+211.931+448.409Z" opacity="1" fill="#3b3b3b"/>
<path d="M280.65+779.038C280.876+779.17+281.151+779.187+281.392+779.083C281.404+779.078+281.416+779.073+281.429+779.067C284.371+777.89+292.465+773.526+294.535+769.989C296.603+766.456+295.415+761.916+291.882+759.848C288.349+757.78+283.809+758.968+281.741+762.501C279.673+766.034+279.83+775.209+280.243+778.361C280.243+778.361+280.242+778.362+280.242+778.362C280.244+778.379+280.245+778.396+280.248+778.414C280.275+778.674+280.424+778.906+280.65+779.038Z" opacity="1" fill="#3b3b3b"/>
<path d="M616.962+817.633C617.188+817.765+617.464+817.782+617.704+817.678C617.717+817.673+617.729+817.668+617.741+817.662C620.683+816.485+628.777+812.121+630.847+808.584C632.915+805.051+631.728+800.511+628.195+798.443C624.662+796.375+620.122+797.562+618.054+801.095C615.986+804.629+616.143+813.804+616.556+816.955C616.556+816.956+616.555+816.956+616.555+816.957C616.556+816.974+616.558+816.991+616.56+817.008C616.587+817.269+616.737+817.501+616.962+817.633Z" opacity="1" fill="#3b3b3b"/>
<path d="M214.859+538.461C214.623+538.35+214.347+538.358+214.117+538.482C214.105+538.488+214.093+538.495+214.081+538.501C211.255+539.935+203.58+544.999+201.831+548.706C200.084+552.408+201.67+556.825+205.372+558.572C209.075+560.318+213.491+558.733+215.238+555.03C216.985+551.328+216.015+542.203+215.324+539.1C215.324+539.1+215.325+539.099+215.325+539.099C215.322+539.082+215.319+539.065+215.315+539.048C215.265+538.791+215.096+538.573+214.859+538.461Z" opacity="1" fill="#3b3b3b"/>
<path d="M241.966+680.046C241.73+679.934+241.454+679.942+241.224+680.067C241.212+680.073+241.2+680.079+241.188+680.086C238.362+681.519+230.687+686.584+228.938+690.29C227.192+693.993+228.777+698.409+232.479+700.156C236.182+701.903+240.599+700.318+242.345+696.615C244.092+692.912+243.122+683.787+242.432+680.685C242.431+680.684+242.432+680.684+242.432+680.683C242.43+680.666+242.426+680.649+242.422+680.632C242.372+680.376+242.203+680.158+241.966+680.046Z" opacity="1" fill="#3b3b3b"/>
<path d="M412.063+580.391C411.889+580.195+411.632+580.093+411.372+580.117C411.358+580.118+411.345+580.119+411.332+580.12C408.169+580.321+399.118+581.944+396.048+584.659C392.981+587.372+392.694+592.055+395.406+595.122C398.119+598.189+402.802+598.476+405.869+595.764C408.935+593.052+411.647+584.285+412.238+581.162C412.238+581.161+412.239+581.161+412.239+581.161C412.243+581.144+412.247+581.127+412.25+581.11C412.305+580.854+412.236+580.587+412.063+580.391Z" opacity="1" fill="#3b3b3b"/>
</g>
<path d="M383.724+183.267C427.575+164.344+476.975+158.279+476.975+158.279C492.143+154.214+504.706+163.646+505.036+179.346L510.729+450.533C511.058+466.232+502.249+470.034+491.052+459.024L297.649+268.84C286.452+257.83+288.208+242.218+301.571+233.971C301.571+233.971+339.874+202.19+383.724+183.267Z" opacity="1" fill="#f68d5e"/>
<path d="M654.011+182.526C698.29+200.425+737.32+231.308+737.32+231.308C750.871+239.242+752.989+254.809+742.052+266.076L553.12+460.703C542.182+471.97+533.287+468.374+533.251+452.671L532.641+181.425C532.606+165.722+544.947+156.001+560.205+159.712C560.205+159.712+609.732+164.627+654.011+182.526Z" opacity="1" fill="#f68d5e"/>
<path d="M846.335+370.906C864.34+415.142+869.374+464.657+869.374+464.657C873.122+479.907+863.43+492.271+847.727+492.273L576.48+492.313C560.777+492.315+557.16+483.428+568.401+472.464L762.574+283.066C773.815+272.101+789.387+274.182+797.354+287.714C797.354+287.714+828.33+326.671+846.335+370.906Z" opacity="1" fill="#f68d5e"/>
<path d="M844.259+638.386C825.191+682.174+793.283+720.37+793.283+720.37C784.991+733.706+769.374+735.41+758.401+724.177L568.86+530.144C557.887+518.911+561.717+510.114+577.416+510.496L848.582+517.089C864.281+517.47+873.671+530.065+869.556+545.219C869.556+545.219+863.327+594.598+844.259+638.386Z" opacity="1" fill="#f68d5e"/>
</g>
</svg>
