<?xml version="1.0" encoding="UTF-8"?>
<svg clip-rule="evenodd" fill-rule="evenodd" stroke-linecap="round" stroke-linejoin="round" version="1.1" viewBox="0 0 1024 1024" xml:space="preserve" xmlns="http://www.w3.org/2000/svg" xmlns:dc="http://purl.org/dc/elements/1.1/" xmlns:rdf="http://www.w3.org/1999/02/22-rdf-syntax-ns#" xmlns:xlink="http://www.w3.org/1999/xlink">
<defs>
<path id="Mask_2" d="m105.91 512c0-224.28 181.81-406.09 406.09-406.09s406.09 181.81 406.09 406.09-181.81 406.09-406.09 406.09-406.09-181.81-406.09-406.09z"/>
<clipPath id="clipPath2332-6"><path d="m760.54-88.03-497.08 1200.1h-366.2v-1197.6z" clip-rule="evenodd" fill="none" stroke="#000" stroke-linecap="butt" stroke-linejoin="miter" stroke-width=".92996px"/></clipPath><clipPath id="clipPath2336-2"><path d="m760.54-88.03-497.08 1200.1h-366.2v-1197.6z" clip-rule="evenodd" fill="none" stroke="#000" stroke-linecap="butt" stroke-linejoin="miter" stroke-width=".92996px"/></clipPath><clipPath id="clipPath5407"><circle cx="514" cy="514" r="512" fill="#fff08c" opacity=".5" stroke="#fffffd" stroke-opacity=".6" stroke-width="4"/></clipPath></defs>
<g><g clip-rule="evenodd" fill-rule="evenodd" stroke-linecap="round" stroke-linejoin="round"><g clip-path="url(#clipPath5407)"><rect width="1024" height="1024" fill="#7bd191" stroke-width="2.566"/><rect width="1024" height="1024" clip-path="url(#clipPath2336-2)" fill="#ffd232" stroke-width="2.5663"/></g><use width="100%" height="100%" fill="#ffcccc" xlink:href="#Mask_2"/><use transform="matrix(.85025 0 0 .85025 76.671 76.671)" width="100%" height="100%" fill="#ff6f6f" xlink:href="#Mask_2"/><path id="use2662" d="m562.57 628.77c0.1494 0.54194 0.5468 0.97808 1.0715 1.1796 0.026 0.0129 0.052 0.0221 0.079 0.0315 6.2785 2.6012 25.236 8.0326 33.714 5.7073 8.4673-2.3242 13.446-11.07 11.123-19.536-2.3221-8.4679-11.068-13.447-19.536-11.125-8.4653 2.3236-21.974 16.637-26.062 22.093v6.4e-4c-0.025 0.0279-0.047 0.0573-0.07 0.0866-0.3489 0.44003-0.4683 1.0201-0.3188 1.562z" clip-rule="evenodd" fill="#3b3b3b" fill-rule="evenodd" stroke-linecap="round" stroke-linejoin="round" stroke-width="2.1447"/></g><use transform="matrix(.68044 .72192 -.72192 .68044 812.39 -381.16)" width="100%" height="100%" xlink:href="#use2662"/><use transform="matrix(.51225 .8145 -.8145 .51225 565.57 -310.94)" width="100%" height="100%" xlink:href="#use2662"/><use transform="matrix(.4708 -.87404 .87404 .4708 -419.45 867)" width="100%" height="100%" xlink:href="#use2662"/><use transform="matrix(.16585 .94551 -.94551 .16585 831.8 -329.03)" width="100%" height="100%" xlink:href="#use2662"/><use transform="matrix(.41355 -.85164 .85164 .41355 -289.74 536.58)" width="100%" height="100%" xlink:href="#use2662"/><use transform="matrix(.65731 .55949 -.55949 .65731 567.74 -250.33)" width="100%" height="100%" xlink:href="#use2662"/><use transform="matrix(.44692 -.82086 .82086 .44692 -482.93 823.8)" width="100%" height="100%" xlink:href="#use2662"/><use transform="matrix(.57835 -.9259 .9259 .57835 -247.88 905.2)" width="100%" height="100%" xlink:href="#use2662"/><use transform="matrix(-.50851 .79966 -.79966 -.50851 1442.8 194.59)" width="100%" height="100%" xlink:href="#use2662"/><use transform="matrix(-.51862 -.81813 .81813 -.51862 275.65 1256.4)" width="100%" height="100%" xlink:href="#use2662"/><use transform="matrix(1.0247 .099901 -.099901 1.0247 -84.444 65.058)" width="100%" height="100%" xlink:href="#use2662"/><use transform="matrix(-1.0232 .33802 -.33802 -1.0232 1560.9 1026.9)" width="100%" height="100%" xlink:href="#use2662"/><use width="100%" height="100%" clip-path="url(#clipPath2332-6)" clip-rule="evenodd" fill="#fff0b6" fill-rule="evenodd" stroke-linecap="round" stroke-linejoin="round" xlink:href="#Mask_2"/><path d="m483.15 156.12-24.386 2.7897c-34.454 6.9059-39.44 8.2038-44.396 9.6088-15.936 4.5176-23.343 21.799-17.003 37.106l103.15 249.03c6.3404 15.307 16.62 15.307 22.961 0l103.15-249.03c6.3404-15.307-1.0691-32.583-17.003-37.106-7.1462-2.0287-14.356-3.835-21.614-5.4132-16.185-3.5191-39.704-6.6766-52.323-7.3334l-23.691-0.8734zm-243.2 124.63-15.271 19.216c-19.479 29.246-22.087 33.689-24.598 38.187-8.0737 14.463-1.0922 31.92 14.215 38.261l249.03 103.15c15.307 6.3406 22.576-0.92835 16.236-16.236l-103.15-249.03c-6.3406-15.307-23.795-22.284-38.261-14.215-6.4876 3.6186-12.863 7.4392-19.111 11.456-13.933 8.9564-32.796 23.354-42.184 31.813l-17.369 16.134zm-83.837 260.09 2.7897 24.386c6.9059 34.454 8.2038 39.44 9.6088 44.396 4.5176 15.936 21.799 23.343 37.106 17.003l249.03-103.15c15.307-6.3404 15.307-16.62 0-22.961l-249.03-103.15c-15.307-6.3404-32.583 1.0691-37.106 17.003-2.0287 7.1462-3.835 14.356-5.4132 21.614-3.5191 16.185-6.6766 39.704-7.3334 52.323l-0.8734 23.691zm124.63 243.2 19.216 15.271c29.246 19.479 33.689 22.087 38.187 24.598 14.463 8.0737 31.92 1.0922 38.261-14.215l103.15-249.03c6.3406-15.307-0.92835-22.576-16.236-16.236l-249.03 103.15c-15.307 6.3406-22.284 23.795-14.215 38.261 3.6186 6.4876 7.4392 12.863 11.456 19.111 8.9564 13.933 23.354 32.796 31.813 42.184l16.134 17.369z" clip-rule="evenodd" fill="#ffd232" fill-rule="evenodd"/></g></svg>
